<svg xmlns="http://www.w3.org/2000/svg" id="Layer_1" data-name="Layer 1" viewBox="0 0 526 184"><defs><style>.cls-1{fill:#3d7ebf}.cls-2{fill:#fff;stroke:#fff;stroke-miterlimit:10;stroke-width:.25px}.cls-3{fill:#d98b51}</style></defs><path d="M55.89,11.76a.83.83,0,0,1,.31-.38c3.63-2.47,56.35-35.65,181.23,24.23,118,56.56,236.9-9.63,258.27-22.86.71-.44,1.9.69,1.52,1.43L475.73,56a1,1,0,0,0,.87,1.46c5.59.08,25.07.3,46.88,0a1,1,0,0,1,.76,1.64C509.59,72.92,406.19,167.7,325,167.7c-87.57,0-135-20.46-191-35.93C78.86,116.54,52.32,111.43,18.58,117a1,1,0,0,1-1.14-1.26L30.5,69.9Z" class="cls-1"/><path d="M83.68,33.11a276.76,276.76,0,0,1-9.24,37.1C63.3,96.82,82.3,92.48,87.73,81.42,91,75.32,94.27,68.7,94.27,68.7l17.07,6.54S110,83,108.56,89.45c-5.36,16.68,10.27,14.67,14.59,2.35C125.08,85.46,134.05,59,136.52,45c3.73-8.95-9-17.12-14.81-2.66-3.08,5.33-8.09,17-8.09,17s-14.09-5.2-14.26-5.77c-.55-1.43,1.18-5.13,1.25-8.59C99.75,21,85.47,23,83.68,33.11Z" class="cls-2"/><path d="M158.88,51.76c4.35-8.65,9.33-10.1,13-9.7,1.6.13,3.78,3.38,5.44,6.51,5.45,20.59-4.31,58.45-6,61-5.94,9.59-16.36,7.78-12.41-2.59,1.85-6.3,3.84-12,3.84-12l-13.5-1.5c-10.61,20.6-20.14,12-14.65,3.07C140.48,86.1,153,63.27,158.88,51.76Zm-4.46,26.48,13.31,2.27s3.69-23.42-.46-21Z" class="cls-2"/><path d="M227.59,72.52c1.76-5-1.9-16.18-14.69-14.31C194.37,58.34,188,90.8,188,90.8s-3.08,15.72,1.78,26.43c4.42,10.33,15.13,10.37,17.21,10.63,12.16-3.66,8-11.76,5.92-12-2.65-.13-6.24.3-9.14-2.06-4.92-4-4-14-3-19.44,2.52-9.1,8.05-27.17,16.88-22.74,5.3,6.76,9,3.65,10,.92Z" class="cls-2"/><path d="M239.77,71.68c-3.26,9.95.83,20.43-7.32,39.36-1.94,4.63-6.7,13.11-7.27,14.32-4.51,8.54,4.65,13.58,14.74-1.35,2.45-3.42,5.14-12.16,5.14-12.16l4.39-.5s3.84,16.88,4.72,24.12c1,7,13.31,10.94,13.49-2.75-.44-4.7-2.08-11-5.16-19.11,0,0-2-5.9-3.95-6.67,0,0,13.79-13.72,15.11-19,1.37-5.58-1.14-9.45-11.92-.36s-12,12-12,12S252.26,88.09,252,79.4c.93-9.2-9.42-15.89-12.24-7.72Z" class="cls-2"/><path d="M309.24,89c-4.63,4.59-7.54,13.2-7.22,26.23.65,19.45,8.71,30.63,22.47,28.4s10.52-12.15,9.25-12.48c-1-.27-1.27-1.43-6.91.69s-9.89-.36-13.45-9c-2.35-5.84-3.62-17.19.62-23.53a8,8,0,0,1,3.11-2.78,5.16,5.16,0,0,1,5.58.34c7.1,5.15,8.49-.55,5.95-5.62-5-7.08-11.67-8.53-19.4-2.26Z" class="cls-2"/><path d="M340,89.26c-.07-7.38,7.56-13.07,10.24,3.44,3.31,10.66,2.46,31.29,4.05,33.2s13.41-.75,16.61-1.83,9.1.34,7.77,3.54c-1.08,3.27-4.13,3.58-4.77,4s-27.35,8.3-28.35,3-1.05-7.7-2.05-16.68S340.07,96.65,340,89.26Z" class="cls-2"/><path d="M372,82.65c-.58-5.33,4.87-8.6,8.07-2.86,2.44,4.44,5.27,23.73,9.24,31.85,2.18,3.28,6.66,3.87,8.78.86,2.49-4.56.69-15.94-.85-25.07-1.09-4.38-2.35-7.72-2.29-10.17,1-8.22,7.56-6.27,10.64,2.16,2.56,9.39,5.24,24.57,3.9,30-1.28,5.13-2.62,11.62-9.28,13.21-1.73.38-16.14,2.46-21.21-13.31C374.16,92.75,372.62,88,372,82.65Z" class="cls-2"/><path d="M417.23,65c8.86-5.35,15.51-7.19,20.7-5.32,3,1.87,5,7,4.19,11.42a37,37,0,0,1-2.53,7c5.25.53,9.1,5.78,10.1,12.64s-5.47,13.33-17.49,17.33c-4.06,1.14-8.36,1.13-8.55-.28-.13-2.76-10.34-35.6-10.34-35.6C413,70.21,411.91,68,417.23,65Zm3.67,5.85,4.44,10.39s10.76-4.32,9.49-10.1S426.79,68.84,420.9,70.88Zm6,18.41s3,12.76,2.92,12.18c-.07-.83,15.69-4,12.33-12.18S426.87,89.29,426.87,89.29Z" class="cls-2"/><path d="M56.27,7a3.47,3.47,0,0,1,3-1c2,.25,1.48,2.51.74,4A652.07,652.07,0,0,0,27.23,92.58c-13.45,43-12.42,88.92-12.42,91.42H0c-.2-4.5,2.6-47.75,17.41-91.42S54.31,8.48,56.27,7Z" class="cls-3"/></svg>