<svg xmlns="http://www.w3.org/2000/svg" xmlns:xlink="http://www.w3.org/1999/xlink" id="Layer_1" data-name="Layer 1" viewBox="0 0 280 158"><defs><style>.cls-1,.cls-5,.cls-9{fill:#fff}.cls-1,.cls-5,.cls-7,.cls-9{fill-rule:evenodd}.cls-2,.cls-4{fill:none}.cls-3{clip-path:url(#clip-path)}.cls-4,.cls-5,.cls-7{stroke:#17171d}.cls-4,.cls-5,.cls-9{stroke-linecap:square;stroke-linejoin:round;stroke-width:3px}.cls-5,.cls-9{stroke-linecap:round}.cls-6{mask:url(#mask)}.cls-7{fill:#3d7ebf;stroke-width:6px}.cls-8{fill:#17171d}.cls-9{stroke:#252429}</style><clipPath id="clip-path"><rect width="280" height="157.5" class="cls-2"/></clipPath><mask id="mask" width="209.31" height="72.58" x="73.19" y="20" maskUnits="userSpaceOnUse"><g id="b"><path d="M94.79,27.31c1.44-1,22.38-13.79,71.52,10,46.43,22.51,93.45-3.39,101.9-8.57.28-.17.74.27.59.56l-8.54,16.46a.39.39,0,0,0,.34.57c2.2,0,9.88.17,18.49.09a.38.38,0,0,1,.29.65c-5.8,5.42-46.74,42.62-78.75,42.48-34.54-.15-53.21-8.29-75.27-14.49C103.64,69,91.32,66.85,78,69c0,0,13.21-32.16,16.14-40C94.55,27.93,94.79,27.31,94.79,27.31Z" class="cls-1"/></g></mask></defs><g class="cls-3"><path d="M-36,79.74s1.7,2.12,4.56,5.54c10.19,12.17,23.81,33.37,39.3,40.41,19.84,9,40.43,8.35,40.43,8.35S62.18,62.17,62.88,63.3,38.56,53.44,25.37,50.08-2.77,34-6.8,30" class="cls-1"/><path d="M-36.45,79.4s24.13,36.82,44,45.8,40.54,8.11,40.54,8.11L65.34,63.36s-41.63-8-72.45-33.84" class="cls-4"/><path d="M64,63.09c-4.59-.33-14.36-1.48-22.91,31.4s3,39.6,7,38.82,11.8-3.89,24.39-33.73S68.58,63.42,64,63.09Z" class="cls-5"/><g class="cls-6"><path d="M94.79,27.31c1.44-1,22.38-13.79,71.52,10,46.43,22.51,93.45-3.39,101.9-8.57.28-.17.74.27.59.56l-8.54,16.46a.39.39,0,0,0,.34.57c2.2,0,9.88.17,18.49.09a.38.38,0,0,1,.29.65c-5.8,5.42-46.74,42.62-78.75,42.48-34.54-.15-53.21-8.29-75.27-14.49C103.64,69,91.32,66.85,78,69c0,0,13.21-32.16,16.14-40C94.55,27.93,94.79,27.31,94.79,27.31Z" class="cls-7"/></g><path d="M107.09,35.79a110.25,110.25,0,0,1-3.71,14.62c-4.44,10.47,3.06,8.79,5.22,4.44,1.28-2.4,2.6-5,2.6-5l6.72,2.61s-.55,3.07-1.12,5.6c-2.14,6.57,4,5.81,5.75,1,.77-2.49,4.35-12.91,5.35-18.42,1.49-3.53-3.53-6.77-5.83-1.08-1.23,2.1-3.22,6.69-3.22,6.69s-5.55-2.08-5.62-2.3c-.21-.57.48-2,.51-3.39C113.45,31.06,107.81,31.81,107.09,35.79Z" class="cls-1"/><path d="M137.29,42.83c1.73-3.4,3.7-4,5.16-3.81.63.06,1.48,1.35,2.14,2.58,2.11,8.13-1.81,23.05-2.49,24.05-2.36,3.77-6.47,3-4.89-1,.74-2.49,1.53-4.74,1.53-4.74l-5.32-.62c-4.21,8.11-8,4.69-5.78,1.19,2.34-4.1,7.32-13.08,9.65-17.61Zm-1.8,10.43,5.24.92s1.5-9.23-.14-8.26Z" class="cls-1"/><path d="M164.06,50.75c.7-2-.72-6.39-5.77-5.67-7.31,0-9.89,12.81-9.89,12.81s-1.24,6.19.66,10.43c1.72,4.08,5.94,4.11,6.76,4.22,4.81-1.43,3.18-4.63,2.36-4.73-1.05-.06-2.46.1-3.6-.83-1.93-1.58-1.57-5.54-1.14-7.67,1-3.59,3.22-10.7,6.69-8.94,2.08,2.67,3.55,1.45,3.93.38Z" class="cls-1"/><path d="M168.32,50.45c-1.3,3.91.29,8-3,15.51-.77,1.82-2.66,5.15-2.89,5.63-1.79,3.36,1.81,5.36,5.82-.51a23.56,23.56,0,0,0,2.05-4.79l1.73-.18s1.48,6.66,1.82,9.51,5.23,4.34,5.32-1.06a30.43,30.43,0,0,0-2-7.54s-.78-2.33-1.55-2.64c0,0,5.47-5.39,6-7.48s-.43-3.73-4.7-.16-4.76,4.71-4.76,4.71a39.1,39.1,0,0,0,.94-7.94c.39-3.63-3.69-6.28-4.81-3.06Z" class="cls-1"/><path d="M195.9,57.55c-1.84,1.8-3,5.19-2.89,10.33.22,7.67,3.38,12.09,8.81,11.24s4.17-4.78,3.67-4.91-.5-.56-2.73.26-3.9-.15-5.29-3.56c-.91-2.31-1.4-6.79.29-9.28A3.1,3.1,0,0,1,199,60.54a2,2,0,0,1,2.2.14c2.79,2,3.35-.2,2.36-2.2C201.58,55.67,199,55.09,195.9,57.55Z" class="cls-1"/><path d="M208,57.86c0-2.92,3-5.15,4,1.37,1.29,4.21.92,12.34,1.54,13.1s5.29-.27,6.56-.69,3.58.15,3.05,1.41a2.57,2.57,0,0,1-1.88,1.55c-.25.15-10.8,3.23-11.19,1.15s-.4-3-.78-6.58S208,60.77,208,57.86Z" class="cls-1"/><path d="M221,55.16c-.22-2.11,1.93-3.39,3.18-1.12,1,1.75,2,9.37,3.59,12.57a2.09,2.09,0,0,0,3.46.36c1-1.79.3-6.28-.29-9.89a20,20,0,0,1-.88-4c.39-3.24,3-2.46,4.18.87,1,3.71,2,9.7,1.49,11.82s-1.05,4.58-3.68,5.2a7.2,7.2,0,0,1-8.34-5.29c-1.9-6.53-2.49-8.41-2.71-10.51Z" class="cls-1"/><path d="M238.68,48.35c3.5-2.1,6.12-2.81,8.17-2.06a4.65,4.65,0,0,1,1.63,4.51,14.76,14.76,0,0,1-1,2.75c2.07.21,3.58,2.29,4,5s-2.17,5.25-6.92,6.8c-1.61.45-3.3.43-3.38-.12,0-1.09-4-14.06-4-14.06-.12-.79-.55-1.65,1.56-2.82Zm1.43,2.31,1.74,4.11s4.25-1.69,3.76-4S242.44,49.87,240.11,50.66Zm2.32,7.27s1.18,5,1.14,4.81,6.19-1.54,4.88-4.78S242.43,57.93,242.43,57.93Z" class="cls-1"/><path d="M94.5,28,58,118.33h3.7L97,30Z" class="cls-8"/><path d="M65,86.12c1.7.71,11.38.78,9.48,4.1s5,8.42,8.83,1.91S82,77.21,74.19,79.33,65,86.12,65,86.12Z" class="cls-9"/><path d="M59,102.12c1.7.71,11.38.78,9.48,4.1s5,8.42,8.83,1.91S76,93.21,68.19,95.33,59,102.12,59,102.12Z" class="cls-9"/><path d="M55,119.12c1.7.71,11.38.78,9.48,4.1s5,8.42,8.83,1.91-1.34-14.92-9.12-12.8S55,119.12,55,119.12Z" class="cls-9"/></g></svg>